<?xml version="1.0" encoding="UTF-8"?>
<!DOCTYPE svg PUBLIC "-//W3C//DTD SVG 1.1//EN" "http://www.w3.org/Graphics/SVG/1.1/DTD/svg11.dtd">
<svg xmlns="http://www.w3.org/2000/svg" version="1.1" width="2048px" height="2048px" style="shape-rendering:geometricPrecision; text-rendering:geometricPrecision; image-rendering:optimizeQuality; fill-rule:evenodd; clip-rule:evenodd" xmlns:xlink="http://www.w3.org/1999/xlink">
<g><path style="opacity:1" fill="#03ef7e" d="M -0.5,-0.5 C 682.167,-0.5 1364.83,-0.5 2047.5,-0.5C 2047.5,366.5 2047.5,733.5 2047.5,1100.5C 2026.25,1088.77 2005.58,1075.94 1985.5,1062C 1958.76,1047.61 1932.76,1031.94 1907.5,1015C 1888.63,1005.26 1869.46,996.095 1850,987.5C 1838.14,978.296 1826.3,969.13 1814.5,960C 1793.75,947.958 1774.41,933.958 1756.5,918C 1751.78,915.978 1747.44,913.478 1743.5,910.5C 1742.42,908.413 1740.75,907.08 1738.5,906.5C 1734.8,904.976 1731.46,902.81 1728.5,900C 1723.63,894.963 1718.63,890.13 1713.5,885.5C 1712.58,882.911 1710.91,880.911 1708.5,879.5C 1703.12,872.438 1697.95,865.104 1693,857.5C 1690.48,849.974 1687.48,842.641 1684,835.5C 1681.97,831.991 1679.8,828.658 1677.5,825.5C 1677.57,823.973 1676.91,822.973 1675.5,822.5C 1674.96,820.407 1674.12,818.407 1673,816.5C 1662,800.833 1651,785.167 1640,769.5C 1620.48,751.581 1601.15,733.248 1582,714.5C 1574.84,702.006 1565.51,691.339 1554,682.5C 1548.17,674.973 1542,667.806 1535.5,661C 1528.25,657.141 1520.92,653.475 1513.5,650C 1509.17,649.333 1504.83,649.333 1500.5,650C 1499.65,651.022 1498.65,651.855 1497.5,652.5C 1492.69,646.787 1486.52,644.454 1479,645.5C 1469.83,644.835 1463,648.502 1458.5,656.5C 1456.26,655.871 1454.26,654.871 1452.5,653.5C 1452.5,542.833 1452.5,432.167 1452.5,321.5C 1453.93,319.321 1454.59,316.821 1454.5,314C 1454.24,309.958 1453.57,306.125 1452.5,302.5C 1452.78,299.171 1452.12,296.171 1450.5,293.5C 1450.5,292.5 1450.5,291.5 1450.5,290.5C 1449.87,287.603 1448.87,284.936 1447.5,282.5C 1443.51,275.545 1439.51,268.545 1435.5,261.5C 1435.27,258.937 1433.94,257.27 1431.5,256.5C 1429.24,252.903 1426.58,249.569 1423.5,246.5C 1423.03,245.094 1422.03,244.427 1420.5,244.5C 1420.17,243.5 1419.5,242.833 1418.5,242.5C 1418.03,241.094 1417.03,240.427 1415.5,240.5C 1412.79,239.147 1410.13,237.814 1407.5,236.5C 1407.03,235.094 1406.03,234.427 1404.5,234.5C 1398.83,231.628 1392.83,229.628 1386.5,228.5C 1385.05,227.06 1383.22,226.393 1381,226.5C 1379.62,226.514 1378.45,226.848 1377.5,227.5C 1374.5,227.5 1371.5,227.5 1368.5,227.5C 1159.17,225.832 949.665,224.165 740,222.5C 711.492,222.5 683.325,223.167 655.5,224.5C 649.827,227.051 644.16,229.385 638.5,231.5C 635.509,231.166 633.176,232.166 631.5,234.5C 630.508,234.328 629.842,234.662 629.5,235.5C 626.208,237.458 623.208,239.791 620.5,242.5C 612.833,246.833 606.833,252.833 602.5,260.5C 601.5,261.833 600.5,263.167 599.5,264.5C 596.839,268.488 595.172,272.821 594.5,277.5C 593.034,278.347 592.2,279.68 592,281.5C 591.833,527 591.667,772.5 591.5,1018C 591.667,1263.5 591.833,1509 592,1754.5C 592.278,1755.42 592.778,1756.08 593.5,1756.5C 594.512,1757.87 595.512,1759.2 596.5,1760.5C 596.5,1760.83 596.5,1761.17 596.5,1761.5C 596.971,1763.58 597.637,1765.58 598.5,1767.5C 598.782,1772.74 600.782,1777.07 604.5,1780.5C 607.016,1785.86 610.183,1790.86 614,1795.5C 621.063,1803.07 628.563,1810.07 636.5,1816.5C 639.554,1819.09 643.22,1820.76 647.5,1821.5C 648.478,1821.81 649.145,1822.48 649.5,1823.5C 898.333,1824.83 1147,1824.83 1395.5,1823.5C 1398.85,1823.67 1402.18,1823.5 1405.5,1823C 1407.97,1822.96 1409.97,1822.13 1411.5,1820.5C 1412.17,1820.5 1412.5,1820.17 1412.5,1819.5C 1414.65,1819.63 1416.65,1819.13 1418.5,1818C 1421.19,1816.42 1423.52,1814.59 1425.5,1812.5C 1428.89,1811.65 1431.22,1809.65 1432.5,1806.5C 1433.5,1806.59 1434.33,1806.25 1435,1805.5C 1436.42,1803.6 1437.59,1801.6 1438.5,1799.5C 1440.1,1798.71 1440.77,1797.38 1440.5,1795.5C 1441.91,1795.03 1442.57,1794.03 1442.5,1792.5C 1444.25,1790.97 1445.25,1788.97 1445.5,1786.5C 1445.5,1786.17 1445.5,1785.83 1445.5,1785.5C 1446.75,1785.42 1447.58,1784.76 1448,1783.5C 1448.4,1780.79 1448.9,1778.13 1449.5,1775.5C 1450.57,1768.37 1451.57,1761.37 1452.5,1754.5C 1453.17,1493.83 1453.83,1233.17 1454.5,972.5C 1455.92,973.925 1457.59,974.925 1459.5,975.5C 1461.98,977.568 1464.98,978.901 1468.5,979.5C 1470.43,980.81 1472.43,982.143 1474.5,983.5C 1483.26,986.379 1491.93,989.545 1500.5,993C 1502.13,993.494 1503.8,993.66 1505.5,993.5C 1509.76,996.049 1514.43,997.715 1519.5,998.5C 1522.66,1000.96 1526.33,1002.3 1530.5,1002.5C 1531.6,1003.56 1532.93,1004.39 1534.5,1005C 1540.01,1006 1545.34,1007.17 1550.5,1008.5C 1552.51,1009.92 1554.85,1010.59 1557.5,1010.5C 1560.01,1012.55 1563.01,1013.55 1566.5,1013.5C 1573.9,1015.35 1581.23,1017.52 1588.5,1020C 1591.15,1020.5 1593.81,1020.66 1596.5,1020.5C 1600.2,1022.25 1604.2,1023.25 1608.5,1023.5C 1615.58,1023.8 1622.25,1025.64 1628.5,1029C 1650.72,1043.55 1672.38,1058.88 1693.5,1075C 1723.33,1094.09 1752.33,1114.42 1780.5,1136C 1807.83,1159 1835.17,1182 1862.5,1205C 1895.33,1237.18 1928.67,1268.51 1962.5,1299C 1974.83,1308.51 1986.83,1318.51 1998.5,1329C 2012.93,1339.24 2027.26,1349.74 2041.5,1360.5C 2041.97,1361.91 2042.97,1362.57 2044.5,1362.5C 2045.29,1363.4 2046.29,1364.07 2047.5,1364.5C 2047.5,1592.17 2047.5,1819.83 2047.5,2047.5C 1364.83,2047.5 682.167,2047.5 -0.5,2047.5C -0.5,1364.83 -0.5,682.167 -0.5,-0.5 Z"/></g>
<g><path style="opacity:1" fill="#2ebc74" d="M 1368.5,227.5 C 1276.17,227.346 1183.83,227.012 1091.5,226.5C 1043.17,225.862 994.836,225.528 946.5,225.5C 849.501,225.046 752.501,224.713 655.5,224.5C 683.325,223.167 711.492,222.5 740,222.5C 949.665,224.165 1159.17,225.832 1368.5,227.5 Z"/></g>
<g><path style="opacity:1" fill="#646565" d="M 655.5,224.5 C 752.501,224.713 849.501,225.046 946.5,225.5C 948.969,226.317 951.635,226.817 954.5,227C 1000.17,227.5 1045.83,227.667 1091.5,227.5C 1186.83,228.089 1282.17,228.423 1377.5,228.5C 1380.5,228.5 1383.5,228.5 1386.5,228.5C 1392.83,229.628 1398.83,231.628 1404.5,234.5C 1404.97,235.906 1405.97,236.573 1407.5,236.5C 1410.13,237.814 1412.79,239.147 1415.5,240.5C 1415.97,241.906 1416.97,242.573 1418.5,242.5C 1419.5,242.833 1420.17,243.5 1420.5,244.5C 1420.97,245.906 1421.97,246.573 1423.5,246.5C 1426.58,249.569 1429.24,252.903 1431.5,256.5C 1432.46,258.461 1433.79,260.127 1435.5,261.5C 1439.51,268.545 1443.51,275.545 1447.5,282.5C 1447.35,285.716 1448.35,288.383 1450.5,290.5C 1450.5,291.5 1450.5,292.5 1450.5,293.5C 1450.68,296.727 1451.34,299.727 1452.5,302.5C 1452.5,308.833 1452.5,315.167 1452.5,321.5C 1452.5,432.167 1452.5,542.833 1452.5,653.5C 1441.91,652.283 1431.91,654.117 1422.5,659C 1412.6,665.245 1406.1,674.079 1403,685.5C 1394.63,683.84 1386.13,683.173 1377.5,683.5C 1375.83,575.004 1374.83,466.337 1374.5,357.5C 1137.67,356.334 900.667,356.167 663.5,357C 662.834,572.764 662.5,788.597 662.5,1004.5C 662.5,1220.4 662.834,1436.24 663.5,1652C 900.667,1652.83 1137.67,1652.67 1374.5,1651.5C 1375.5,1413.33 1375.83,1175 1375.5,936.5C 1385.96,942.274 1396.63,947.774 1407.5,953C 1422.47,959.321 1437.47,965.488 1452.5,971.5C 1452.5,1232.5 1452.5,1493.5 1452.5,1754.5C 1451.57,1761.37 1450.57,1768.37 1449.5,1775.5C 1448.41,1775.62 1447.75,1776.29 1447.5,1777.5C 1446.83,1780.18 1446.16,1782.85 1445.5,1785.5C 1445.5,1785.83 1445.5,1786.17 1445.5,1786.5C 1443.75,1788.03 1442.75,1790.03 1442.5,1792.5C 1442.57,1794.03 1441.91,1795.03 1440.5,1795.5C 1439.33,1796.51 1438.66,1797.85 1438.5,1799.5C 1435.8,1801.23 1433.8,1803.57 1432.5,1806.5C 1429.94,1808.27 1427.61,1810.27 1425.5,1812.5C 1420.89,1814.47 1416.56,1816.81 1412.5,1819.5C 1412.5,1820.17 1412.17,1820.5 1411.5,1820.5C 1406.07,1821.65 1400.74,1822.65 1395.5,1823.5C 1147,1824.83 898.333,1824.83 649.5,1823.5C 649.145,1822.48 648.478,1821.81 647.5,1821.5C 644.291,1819.07 640.624,1817.4 636.5,1816.5C 628.563,1810.07 621.063,1803.07 614,1795.5C 610.183,1790.86 607.016,1785.86 604.5,1780.5C 602.35,1776.35 600.684,1772.02 599.5,1767.5C 599.379,1764.9 598.379,1762.9 596.5,1761.5C 596.5,1761.17 596.5,1760.83 596.5,1760.5C 596.313,1758.44 595.813,1756.44 595,1754.5C 594.5,1264.17 594.333,773.833 594.5,283.5C 594.5,282.833 594.5,282.167 594.5,281.5C 596.903,276.167 598.569,270.5 599.5,264.5C 600.5,263.167 601.5,261.833 602.5,260.5C 606.602,255.895 610.936,251.395 615.5,247C 618.287,246.712 619.953,245.212 620.5,242.5C 624.363,241.306 627.363,238.973 629.5,235.5C 629.842,234.662 630.508,234.328 631.5,234.5C 634.018,233.736 636.351,232.736 638.5,231.5C 644.16,229.385 649.827,227.051 655.5,224.5 Z"/></g>
<g><path style="opacity:1" fill="#5c7267" d="M 946.5,225.5 C 994.836,225.528 1043.17,225.862 1091.5,226.5C 1091.5,226.833 1091.5,227.167 1091.5,227.5C 1045.83,227.667 1000.17,227.5 954.5,227C 951.635,226.817 948.969,226.317 946.5,225.5 Z"/></g>
<g><path style="opacity:1" fill="#51826a" d="M 1091.5,227.5 C 1091.5,227.167 1091.5,226.833 1091.5,226.5C 1183.83,227.012 1276.17,227.346 1368.5,227.5C 1371.5,227.5 1374.5,227.5 1377.5,227.5C 1377.5,227.833 1377.5,228.167 1377.5,228.5C 1282.17,228.423 1186.83,228.089 1091.5,227.5 Z"/></g>
<g><path style="opacity:1" fill="#557e69" d="M 1386.5,228.5 C 1383.5,228.5 1380.5,228.5 1377.5,228.5C 1377.5,228.167 1377.5,227.833 1377.5,227.5C 1378.45,226.848 1379.62,226.514 1381,226.5C 1383.22,226.393 1385.05,227.06 1386.5,228.5 Z"/></g>
<g><path style="opacity:1" fill="#2fb673" d="M 638.5,231.5 C 636.351,232.736 634.018,233.736 631.5,234.5C 633.176,232.166 635.509,231.166 638.5,231.5 Z"/></g>
<g><path style="opacity:1" fill="#439b6f" d="M 1404.5,234.5 C 1406.03,234.427 1407.03,235.094 1407.5,236.5C 1405.97,236.573 1404.97,235.906 1404.5,234.5 Z"/></g>
<g><path style="opacity:1" fill="#49916d" d="M 629.5,235.5 C 627.363,238.973 624.363,241.306 620.5,242.5C 623.208,239.791 626.208,237.458 629.5,235.5 Z"/></g>
<g><path style="opacity:1" fill="#37ab72" d="M 1415.5,240.5 C 1417.03,240.427 1418.03,241.094 1418.5,242.5C 1416.97,242.573 1415.97,241.906 1415.5,240.5 Z"/></g>
<g><path style="opacity:1" fill="#40a070" d="M 1420.5,244.5 C 1422.03,244.427 1423.03,245.094 1423.5,246.5C 1421.97,246.573 1420.97,245.906 1420.5,244.5 Z"/></g>
<g><path style="opacity:1" fill="#4b906d" d="M 620.5,242.5 C 619.953,245.212 618.287,246.712 615.5,247C 610.936,251.395 606.602,255.895 602.5,260.5C 606.833,252.833 612.833,246.833 620.5,242.5 Z"/></g>
<g><path style="opacity:1" fill="#0b0b0b" d="M 1020.5,256.5 C 1029.52,256.554 1031.85,260.554 1027.5,268.5C 1017.09,269.606 1014.76,265.606 1020.5,256.5 Z"/></g>
<g><path style="opacity:1" fill="#2ec276" d="M 1431.5,256.5 C 1433.94,257.27 1435.27,258.937 1435.5,261.5C 1433.79,260.127 1432.46,258.461 1431.5,256.5 Z"/></g>
<g><path style="opacity:1" fill="#577c69" d="M 599.5,264.5 C 598.569,270.5 596.903,276.167 594.5,281.5C 594.5,280.833 594.5,280.167 594.5,279.5C 594.5,278.833 594.5,278.167 594.5,277.5C 595.172,272.821 596.839,268.488 599.5,264.5 Z"/></g>
<g><path style="opacity:1" fill="#557968" d="M 594.5,283.5 C 594.333,773.833 594.5,1264.17 595,1754.5C 595.813,1756.44 596.313,1758.44 596.5,1760.5C 595.512,1759.2 594.512,1757.87 593.5,1756.5C 593.5,1755.17 593.5,1753.83 593.5,1752.5C 593.167,1262.67 593.5,773 594.5,283.5 Z"/></g>
<g><path style="opacity:1" fill="#08e77c" d="M 594.5,277.5 C 594.5,278.167 594.5,278.833 594.5,279.5C 593.732,280.263 593.232,281.263 593,282.5C 592.833,527.5 592.667,772.5 592.5,1017.5C 592.5,1262.67 592.833,1507.67 593.5,1752.5C 593.5,1753.83 593.5,1755.17 593.5,1756.5C 592.778,1756.08 592.278,1755.42 592,1754.5C 591.833,1509 591.667,1263.5 591.5,1018C 591.667,772.5 591.833,527 592,281.5C 592.2,279.68 593.034,278.347 594.5,277.5 Z"/></g>
<g><path style="opacity:1" fill="#36a771" d="M 594.5,279.5 C 594.5,280.167 594.5,280.833 594.5,281.5C 594.5,282.167 594.5,282.833 594.5,283.5C 593.5,773 593.167,1262.67 593.5,1752.5C 592.833,1507.67 592.5,1262.67 592.5,1017.5C 592.667,772.5 592.833,527.5 593,282.5C 593.232,281.263 593.732,280.263 594.5,279.5 Z"/></g>
<g><path style="opacity:1" fill="#439b6f" d="M 1447.5,282.5 C 1448.87,284.936 1449.87,287.603 1450.5,290.5C 1448.35,288.383 1447.35,285.716 1447.5,282.5 Z"/></g>
<g><path style="opacity:1" fill="#0d0d0d" d="M 926.5,292.5 C 935.817,292.652 937.817,296.485 932.5,304C 927.623,305.394 924.957,303.561 924.5,298.5C 925.178,296.484 925.844,294.484 926.5,292.5 Z"/></g>
<g><path style="opacity:1" fill="#242424" d="M 1085.5,296.5 C 1044.17,296.333 1002.83,296.5 961.5,297C 960.663,298.011 960.33,299.178 960.5,300.5C 959.199,299.116 959.199,297.616 960.5,296C 1002.34,295.169 1044,295.335 1085.5,296.5 Z"/></g>
<g><path style="opacity:1" fill="#090909" d="M 1085.5,296.5 C 1087.58,297.585 1087.92,299.085 1086.5,301C 1044.33,301.831 1002.33,301.665 960.5,300.5C 960.33,299.178 960.663,298.011 961.5,297C 1002.83,296.5 1044.17,296.333 1085.5,296.5 Z"/></g>
<g><path style="opacity:1" fill="#35ae72" d="M 1450.5,293.5 C 1452.12,296.171 1452.78,299.171 1452.5,302.5C 1451.34,299.727 1450.68,296.727 1450.5,293.5 Z"/></g>
<g><path style="opacity:1" fill="#45976e" d="M 1452.5,302.5 C 1453.57,306.125 1454.24,309.958 1454.5,314C 1454.59,316.821 1453.93,319.321 1452.5,321.5C 1452.5,315.167 1452.5,308.833 1452.5,302.5 Z"/></g>
<g><path style="opacity:1" fill="#8a8a8a" d="M 1374.5,357.5 C 1137.67,357.167 900.999,357.5 664.5,358.5C 663.167,789.167 663.167,1219.83 664.5,1650.5C 900.999,1651.5 1137.67,1651.83 1374.5,1651.5C 1137.67,1652.67 900.667,1652.83 663.5,1652C 662.834,1436.24 662.5,1220.4 662.5,1004.5C 662.5,788.597 662.834,572.764 663.5,357C 900.667,356.167 1137.67,356.334 1374.5,357.5 Z"/></g>
<g><path style="opacity:1" fill="#fefefe" d="M 664.5,358.5 C 900.833,358.5 1137.17,358.5 1373.5,358.5C 1373.83,467.57 1373.5,576.57 1372.5,685.5C 1363.39,687.772 1356.39,692.939 1351.5,701C 1350.4,711.172 1350.23,721.339 1351,731.5C 1325.27,716.605 1300.44,700.439 1276.5,683C 1264.48,677.098 1252.98,670.265 1242,662.5C 1236.56,659.408 1230.72,657.408 1224.5,656.5C 1220.12,654.862 1215.46,654.029 1210.5,654C 1204.41,653.139 1198.41,653.473 1192.5,655C 1190.21,656.777 1188.54,658.944 1187.5,661.5C 1181.61,668.393 1180.94,675.893 1185.5,684C 1194.46,688.972 1203.13,694.306 1211.5,700C 1220.95,708.201 1230.62,716.201 1240.5,724C 1251.29,730.9 1262.29,737.566 1273.5,744C 1285.05,753.548 1295.22,764.381 1304,776.5C 1306.74,778.816 1309.57,780.982 1312.5,783C 1314.29,785.795 1316.46,788.295 1319,790.5C 1321.4,796.807 1320.57,802.641 1316.5,808C 1314.39,809.907 1311.89,810.74 1309,810.5C 1305.16,809.167 1301.32,807.667 1297.5,806C 1287.09,797.917 1276.42,790.25 1265.5,783C 1255.72,779.084 1245.72,776.417 1235.5,775C 1224.95,780.978 1221.78,789.812 1226,801.5C 1231.18,809.987 1236.18,818.654 1241,827.5C 1250.46,837.027 1258.8,847.36 1266,858.5C 1276.56,866.736 1286.39,875.569 1295.5,885C 1304.82,891.646 1314.15,898.312 1323.5,905C 1340.34,914.919 1357.01,925.086 1373.5,935.5C 1373.5,1173.83 1373.5,1412.17 1373.5,1650.5C 1137.17,1650.5 900.833,1650.5 664.5,1650.5C 663.167,1219.83 663.167,789.167 664.5,358.5 Z"/></g>
<g><path style="opacity:1" fill="#d3d3d3" d="M 664.5,358.5 C 900.999,357.5 1137.67,357.167 1374.5,357.5C 1374.5,466.5 1374.5,575.5 1374.5,684.5C 1374.16,685.338 1373.49,685.672 1372.5,685.5C 1373.5,576.57 1373.83,467.57 1373.5,358.5C 1137.17,358.5 900.833,358.5 664.5,358.5 Z"/></g>
<g><path style="opacity:1" fill="#9e9e9e" d="M 1374.5,357.5 C 1374.83,466.337 1375.83,575.004 1377.5,683.5C 1376.79,684.404 1375.79,684.737 1374.5,684.5C 1374.5,575.5 1374.5,466.5 1374.5,357.5 Z"/></g>
<g><path style="opacity:1" fill="#fed1a6" d="M 1675.5,822.5 C 1675.43,824.027 1676.09,825.027 1677.5,825.5C 1679.8,828.658 1681.97,831.991 1684,835.5C 1687.48,842.641 1690.48,849.974 1693,857.5C 1697.95,865.104 1703.12,872.438 1708.5,879.5C 1709.42,882.089 1711.09,884.089 1713.5,885.5C 1718.63,890.13 1723.63,894.963 1728.5,900C 1731.46,902.81 1734.8,904.976 1738.5,906.5C 1739.58,908.587 1741.25,909.92 1743.5,910.5C 1747.44,913.478 1751.78,915.978 1756.5,918C 1774.41,933.958 1793.75,947.958 1814.5,960C 1826.3,969.13 1838.14,978.296 1850,987.5C 1869.46,996.095 1888.63,1005.26 1907.5,1015C 1932.76,1031.94 1958.76,1047.61 1985.5,1062C 2005.58,1075.94 2026.25,1088.77 2047.5,1100.5C 2047.5,1188.5 2047.5,1276.5 2047.5,1364.5C 2046.29,1364.07 2045.29,1363.4 2044.5,1362.5C 2044.03,1361.09 2043.03,1360.43 2041.5,1360.5C 2027.26,1349.74 2012.93,1339.24 1998.5,1329C 1986.83,1318.51 1974.83,1308.51 1962.5,1299C 1928.67,1268.51 1895.33,1237.18 1862.5,1205C 1835.17,1182 1807.83,1159 1780.5,1136C 1752.33,1114.42 1723.33,1094.09 1693.5,1075C 1672.38,1058.88 1650.72,1043.55 1628.5,1029C 1622.25,1025.64 1615.58,1023.8 1608.5,1023.5C 1608.39,1022.88 1608.06,1022.38 1607.5,1022C 1603.83,1021.45 1600.16,1020.95 1596.5,1020.5C 1593.81,1020.66 1591.15,1020.5 1588.5,1020C 1581.23,1017.52 1573.9,1015.35 1566.5,1013.5C 1563.75,1012.05 1560.75,1011.05 1557.5,1010.5C 1555.49,1009.08 1553.15,1008.41 1550.5,1008.5C 1545.34,1007.17 1540.01,1006 1534.5,1005C 1532.93,1004.39 1531.6,1003.56 1530.5,1002.5C 1527.45,1000.03 1523.78,998.699 1519.5,998.5C 1515.24,995.951 1510.57,994.285 1505.5,993.5C 1503.8,993.66 1502.13,993.494 1500.5,993C 1491.93,989.545 1483.26,986.379 1474.5,983.5C 1472.43,982.143 1470.43,980.81 1468.5,979.5C 1465.95,977.416 1462.95,976.083 1459.5,975.5C 1457.59,974.925 1455.92,973.925 1454.5,972.5C 1454.16,971.662 1453.49,971.328 1452.5,971.5C 1437.47,965.488 1422.47,959.321 1407.5,953C 1396.63,947.774 1385.96,942.274 1375.5,936.5C 1374.83,936.167 1374.17,935.833 1373.5,935.5C 1357.01,925.086 1340.34,914.919 1323.5,905C 1314.15,898.312 1304.82,891.646 1295.5,885C 1286.39,875.569 1276.56,866.736 1266,858.5C 1258.8,847.36 1250.46,837.027 1241,827.5C 1236.18,818.654 1231.18,809.987 1226,801.5C 1221.78,789.812 1224.95,780.978 1235.5,775C 1245.72,776.417 1255.72,779.084 1265.5,783C 1276.42,790.25 1287.09,797.917 1297.5,806C 1301.32,807.667 1305.16,809.167 1309,810.5C 1311.89,810.74 1314.39,809.907 1316.5,808C 1320.57,802.641 1321.4,796.807 1319,790.5C 1316.46,788.295 1314.29,785.795 1312.5,783C 1309.57,780.982 1306.74,778.816 1304,776.5C 1295.22,764.381 1285.05,753.548 1273.5,744C 1262.29,737.566 1251.29,730.9 1240.5,724C 1230.62,716.201 1220.95,708.201 1211.5,700C 1203.13,694.306 1194.46,688.972 1185.5,684C 1180.94,675.893 1181.61,668.393 1187.5,661.5C 1189.63,659.873 1191.63,658.04 1193.5,656C 1203.85,655.328 1214.19,655.494 1224.5,656.5C 1230.72,657.408 1236.56,659.408 1242,662.5C 1252.98,670.265 1264.48,677.098 1276.5,683C 1300.44,700.439 1325.27,716.605 1351,731.5C 1350.23,721.339 1350.4,711.172 1351.5,701C 1356.39,692.939 1363.39,687.772 1372.5,685.5C 1373.49,685.672 1374.16,685.338 1374.5,684.5C 1375.79,684.737 1376.79,684.404 1377.5,683.5C 1386.13,683.173 1394.63,683.84 1403,685.5C 1406.1,674.079 1412.6,665.245 1422.5,659C 1431.91,654.117 1441.91,652.283 1452.5,653.5C 1454.26,654.871 1456.26,655.871 1458.5,656.5C 1463,648.502 1469.83,644.835 1479,645.5C 1486.52,644.454 1492.69,646.787 1497.5,652.5C 1498.65,651.855 1499.65,651.022 1500.5,650C 1504.83,649.333 1509.17,649.333 1513.5,650C 1520.92,653.475 1528.25,657.141 1535.5,661C 1542,667.806 1548.17,674.973 1554,682.5C 1565.51,691.339 1574.84,702.006 1582,714.5C 1601.15,733.248 1620.48,751.581 1640,769.5C 1651,785.167 1662,800.833 1673,816.5C 1674.12,818.407 1674.96,820.407 1675.5,822.5 Z"/></g>
<g><path style="opacity:1" fill="#ffe3c9" d="M 1224.5,656.5 C 1214.19,655.494 1203.85,655.328 1193.5,656C 1191.63,658.04 1189.63,659.873 1187.5,661.5C 1188.54,658.944 1190.21,656.777 1192.5,655C 1198.41,653.473 1204.41,653.139 1210.5,654C 1215.46,654.029 1220.12,654.862 1224.5,656.5 Z"/></g>
<g><path style="opacity:1" fill="#a3dc97" d="M 1675.5,822.5 C 1676.91,822.973 1677.57,823.973 1677.5,825.5C 1676.09,825.027 1675.43,824.027 1675.5,822.5 Z"/></g>
<g><path style="opacity:1" fill="#c6d89c" d="M 1708.5,879.5 C 1710.91,880.911 1712.58,882.911 1713.5,885.5C 1711.09,884.089 1709.42,882.089 1708.5,879.5 Z"/></g>
<g><path style="opacity:1" fill="#90df93" d="M 1738.5,906.5 C 1740.75,907.08 1742.42,908.413 1743.5,910.5C 1741.25,909.92 1739.58,908.587 1738.5,906.5 Z"/></g>
<g><path style="opacity:1" fill="#23c375" d="M 1452.5,971.5 C 1453.49,971.328 1454.16,971.662 1454.5,972.5C 1453.83,1233.17 1453.17,1493.83 1452.5,1754.5C 1452.5,1493.5 1452.5,1232.5 1452.5,971.5 Z"/></g>
<g><path style="opacity:1" fill="#8be092" d="M 1459.5,975.5 C 1462.95,976.083 1465.95,977.416 1468.5,979.5C 1464.98,978.901 1461.98,977.568 1459.5,975.5 Z"/></g>
<g><path style="opacity:1" fill="#cfd79e" d="M 1505.5,993.5 C 1510.57,994.285 1515.24,995.951 1519.5,998.5C 1514.43,997.715 1509.76,996.049 1505.5,993.5 Z"/></g>
<g><path style="opacity:1" fill="#d1d79e" d="M 1519.5,998.5 C 1523.78,998.699 1527.45,1000.03 1530.5,1002.5C 1526.33,1002.3 1522.66,1000.96 1519.5,998.5 Z"/></g>
<g><path style="opacity:1" fill="#abdb98" d="M 1550.5,1008.5 C 1553.15,1008.41 1555.49,1009.08 1557.5,1010.5C 1554.85,1010.59 1552.51,1009.92 1550.5,1008.5 Z"/></g>
<g><path style="opacity:1" fill="#7fe191" d="M 1557.5,1010.5 C 1560.75,1011.05 1563.75,1012.05 1566.5,1013.5C 1563.01,1013.55 1560.01,1012.55 1557.5,1010.5 Z"/></g>
<g><path style="opacity:1" fill="#b7da9a" d="M 1596.5,1020.5 C 1600.16,1020.95 1603.83,1021.45 1607.5,1022C 1608.06,1022.38 1608.39,1022.88 1608.5,1023.5C 1604.2,1023.25 1600.2,1022.25 1596.5,1020.5 Z"/></g>
<g><path style="opacity:1" fill="#acdb98" d="M 2041.5,1360.5 C 2043.03,1360.43 2044.03,1361.09 2044.5,1362.5C 2042.97,1362.57 2041.97,1361.91 2041.5,1360.5 Z"/></g>
<g><path style="opacity:1" fill="#c5c5c5" d="M 1373.5,935.5 C 1374.17,935.833 1374.83,936.167 1375.5,936.5C 1375.83,1175 1375.5,1413.33 1374.5,1651.5C 1137.67,1651.83 900.999,1651.5 664.5,1650.5C 900.833,1650.5 1137.17,1650.5 1373.5,1650.5C 1373.5,1412.17 1373.5,1173.83 1373.5,935.5 Z"/></g>
<g><path style="opacity:1" fill="#77755a" d="M 1015.5,1684.5 C 1020.65,1683.35 1025.98,1683.18 1031.5,1684C 1034.85,1684.06 1037.85,1684.89 1040.5,1686.5C 1032.24,1685.03 1023.91,1684.36 1015.5,1684.5 Z"/></g>
<g><path style="opacity:1" fill="#8a874f" d="M 1015.5,1684.5 C 1023.91,1684.36 1032.24,1685.03 1040.5,1686.5C 1073.48,1698.69 1087.65,1722.36 1083,1757.5C 1071.54,1792.57 1047.37,1808.07 1010.5,1804C 996.315,1800.65 984.815,1793.15 976,1781.5C 962.938,1763.93 959.938,1744.6 967,1723.5C 975.653,1701.1 991.819,1688.1 1015.5,1684.5 Z"/></g>
<g><path style="opacity:1" fill="#77755a" d="M 1039.5,1690.5 C 1029.16,1689.28 1018.83,1689.28 1008.5,1690.5C 1013.06,1688.96 1017.9,1688.29 1023,1688.5C 1028.74,1688.36 1034.24,1689.02 1039.5,1690.5 Z"/></g>
<g><path style="opacity:1" fill="#656564" d="M 1039.5,1690.5 C 1069.32,1701.86 1082.49,1723.53 1079,1755.5C 1066.83,1792.51 1041.67,1806.51 1003.5,1797.5C 993.424,1792.93 984.924,1786.27 978,1777.5C 969.894,1764.63 966.56,1750.63 968,1735.5C 972.657,1712.35 986.157,1697.35 1008.5,1690.5C 1018.83,1689.28 1029.16,1689.28 1039.5,1690.5 Z"/></g>
<g><path style="opacity:1" fill="#50846a" d="M 596.5,1761.5 C 598.379,1762.9 599.379,1764.9 599.5,1767.5C 599.167,1767.5 598.833,1767.5 598.5,1767.5C 597.637,1765.58 596.971,1763.58 596.5,1761.5 Z"/></g>
<g><path style="opacity:1" fill="#3da370" d="M 598.5,1767.5 C 598.833,1767.5 599.167,1767.5 599.5,1767.5C 600.684,1772.02 602.35,1776.35 604.5,1780.5C 600.782,1777.07 598.782,1772.74 598.5,1767.5 Z"/></g>
<g><path style="opacity:1" fill="#28ca77" d="M 1449.5,1775.5 C 1448.9,1778.13 1448.4,1780.79 1448,1783.5C 1447.58,1784.76 1446.75,1785.42 1445.5,1785.5C 1446.16,1782.85 1446.83,1780.18 1447.5,1777.5C 1447.75,1776.29 1448.41,1775.62 1449.5,1775.5 Z"/></g>
<g><path style="opacity:1" fill="#35ae72" d="M 1445.5,1786.5 C 1445.25,1788.97 1444.25,1790.97 1442.5,1792.5C 1442.75,1790.03 1443.75,1788.03 1445.5,1786.5 Z"/></g>
<g><path style="opacity:1" fill="#36ae72" d="M 1440.5,1795.5 C 1440.77,1797.38 1440.1,1798.71 1438.5,1799.5C 1438.66,1797.85 1439.33,1796.51 1440.5,1795.5 Z"/></g>
<g><path style="opacity:1" fill="#2dbf75" d="M 1438.5,1799.5 C 1437.59,1801.6 1436.42,1803.6 1435,1805.5C 1434.33,1806.25 1433.5,1806.59 1432.5,1806.5C 1433.8,1803.57 1435.8,1801.23 1438.5,1799.5 Z"/></g>
<g><path style="opacity:1" fill="#2dbe75" d="M 1432.5,1806.5 C 1431.22,1809.65 1428.89,1811.65 1425.5,1812.5C 1427.61,1810.27 1429.94,1808.27 1432.5,1806.5 Z"/></g>
<g><path style="opacity:1" fill="#39b073" d="M 636.5,1816.5 C 640.624,1817.4 644.291,1819.07 647.5,1821.5C 643.22,1820.76 639.554,1819.09 636.5,1816.5 Z"/></g>
<g><path style="opacity:1" fill="#2dc376" d="M 1425.5,1812.5 C 1423.52,1814.59 1421.19,1816.42 1418.5,1818C 1416.65,1819.13 1414.65,1819.63 1412.5,1819.5C 1416.56,1816.81 1420.89,1814.47 1425.5,1812.5 Z"/></g>
<g><path style="opacity:1" fill="#28c275" d="M 1411.5,1820.5 C 1409.97,1822.13 1407.97,1822.96 1405.5,1823C 1402.18,1823.5 1398.85,1823.67 1395.5,1823.5C 1400.74,1822.65 1406.07,1821.65 1411.5,1820.5 Z"/></g>
</svg>
